<?xml version="1.0" encoding="UTF-8"?>
<!DOCTYPE svg PUBLIC "-//W3C//DTD SVG 1.1//EN" "http://www.w3.org/Graphics/SVG/1.1/DTD/svg11.dtd">
<svg version="1.1" xmlns="http://www.w3.org/2000/svg" xmlns:xlink="http://www.w3.org/1999/xlink" x="0" y="0" width="1000" height="792" viewBox="0, 0, 1000, 792">
  <g id="Layer_2">
    <path d="M500.5,672.5 C341.166,672.5 212,543.334 212,384 C212,224.666 341.166,95.5 500.5,95.5 C659.834,95.5 789,224.666 789,384 C789,543.334 659.834,672.5 500.5,672.5 z" fill-opacity="0" stroke="#D9F9D7" stroke-width="51"/>
  </g>
  <g id="Layer_1">
    <g>
      <path d="M159.912,215.53 L298.551,215.53 C307.636,215.53 315,222.894 315,231.979 L315,287.2 C315,296.284 307.636,303.648 298.551,303.648 L159.912,303.648 C150.827,303.648 143.463,296.284 143.463,287.2 L143.463,231.979 C143.463,222.894 150.827,215.53 159.912,215.53 z" fill="#B5C7F9"/>
      <text transform="matrix(1, 0, 0, 1, 229.231, 259.589)">
        <tspan x="-47.288" y="5.964" font-family="HelveticaNeue" font-size="24" fill="#000000">commit</tspan>
      </text>
    </g>
    <g>
      <path d="M430.68,54 L569.32,54 C578.404,54 585.769,61.364 585.769,70.449 L585.769,125.67 C585.769,134.754 578.404,142.118 569.32,142.118 L430.68,142.118 C421.596,142.118 414.231,134.754 414.231,125.67 L414.231,70.449 C414.231,61.364 421.596,54 430.68,54 z" fill="#B5C7F9"/>
      <text transform="matrix(1, 0, 0, 1, 515.274, 98.059)">
        <tspan x="-47.288" y="5.964" font-family="HelveticaNeue" font-size="24" fill="#000000">build</tspan>
      </text>
    </g>
    <g>
      <path d="M705.122,232.941 L843.761,232.941 C852.846,232.941 860.21,240.305 860.21,249.39 L860.21,304.61 C860.21,313.695 852.846,321.059 843.761,321.059 L705.122,321.059 C696.038,321.059 688.673,313.695 688.673,304.61 L688.673,249.39 C688.673,240.305 696.038,232.941 705.122,232.941 z" fill="#B5C7F9"/>
      <text transform="matrix(1, 0, 0, 1, 777.966, 277)">
        <tspan x="-47.288" y="5.964" font-family="HelveticaNeue" font-size="24" fill="#000000">testing</tspan>
      </text>
    </g>
    <g>
      <path d="M688.724,479.433 L827.364,479.433 C836.448,479.433 843.813,486.797 843.813,495.882 L843.813,551.102 C843.813,560.187 836.448,567.551 827.364,567.551 L688.724,567.551 C679.64,567.551 672.276,560.187 672.276,551.102 L672.276,495.882 C672.276,486.797 679.64,479.433 688.724,479.433 z" fill="#B5C7F9"/>
      <text transform="matrix(1, 0, 0, 1, 767.443, 523.492)">
        <tspan x="-47.288" y="5.964" font-family="HelveticaNeue" font-size="24" fill="#000000">report</tspan>
      </text>
    </g>
    <g>
      <path d="M421.864,622.433 L560.504,622.433 C569.588,622.433 576.952,629.797 576.952,638.882 L576.952,694.102 C576.952,703.187 569.588,710.551 560.504,710.551 L421.864,710.551 C412.78,710.551 405.415,703.187 405.415,694.102 L405.415,638.882 C405.415,629.797 412.78,622.433 421.864,622.433 z" fill="#B5C7F9"/>
      <text transform="matrix(1, 0, 0, 1, 492.359, 666.492)">
        <tspan x="-47.288" y="5.964" font-family="HelveticaNeue" font-size="24" fill="#000000">deploy</tspan>
      </text>
    </g>
    <g>
      <path d="M159.912,463.882 L298.551,463.882 C307.636,463.882 315,471.246 315,480.33 L315,535.551 C315,544.636 307.636,552 298.551,552 L159.912,552 C150.827,552 143.463,544.636 143.463,535.551 L143.463,480.33 C143.463,471.246 150.827,463.882 159.912,463.882 z" fill="#B5C7F9"/>
      <text transform="matrix(1, 0, 0, 1, 237.906, 519.905)">
        <tspan x="-54.788" y="-6" font-family="HelveticaNeue" font-size="24" fill="#000000">feedback</tspan>
      </text>
    </g>
  </g>
</svg>
